<svg width="21" height="21" viewBox="0 0 21 21" fill="none" xmlns="http://www.w3.org/2000/svg">
<g clip-path="url(#clip0_2445_3004)">
<path fill-rule="evenodd" clip-rule="evenodd" d="M8.43906 3.06437C8.02393 3.47951 7.79071 4.04255 7.79071 4.62963L7.79071 14.2123C7.79071 15.1907 8.17938 16.1291 8.87121 16.8209C9.56305 17.5127 10.5014 17.9014 11.4798 17.9014C12.4582 17.9014 13.3965 17.5127 14.0883 16.8209C14.7802 16.1291 15.1689 15.1907 15.1689 14.2123L15.1689 4.62963C15.1689 4.22242 15.499 3.89231 15.9062 3.89231C16.3134 3.89231 16.6435 4.22242 16.6435 4.62963V14.2123C16.6435 15.5818 16.0995 16.8953 15.1311 17.8636C14.1627 18.832 12.8493 19.3761 11.4798 19.3761C10.1103 19.3761 8.79687 18.832 7.82848 17.8636C6.8601 16.8953 6.31606 15.5818 6.31606 14.2123L6.31606 4.62963C6.31606 3.65145 6.70464 2.71332 7.39633 2.02164C8.08801 1.32996 9.02613 0.941379 10.0043 0.941378C10.9825 0.941378 11.9206 1.32996 12.6123 2.02164C13.304 2.71332 13.6926 3.65145 13.6926 4.62963L13.6874 14.2176C13.6874 14.8044 13.4542 15.3672 13.0392 15.7822C12.6243 16.1972 12.0614 16.4303 11.4746 16.4303C10.8877 16.4303 10.3249 16.1972 9.90989 15.7822C9.49491 15.3672 9.26178 14.8044 9.26178 14.2175L9.26699 5.36954C9.26723 4.96232 9.59754 4.63241 10.0047 4.63265C10.412 4.63289 10.7419 4.96319 10.7416 5.37041L10.7364 14.2175C10.7365 14.4132 10.8143 14.6012 10.9526 14.7395C11.091 14.8779 11.2788 14.9557 11.4746 14.9557C11.6703 14.9557 11.8581 14.8779 11.9965 14.7395C12.1349 14.6011 12.2127 14.4133 12.2127 14.2175L12.2179 4.62963C12.2178 4.04269 11.9846 3.47941 11.5696 3.06437C11.1544 2.64924 10.5914 2.41602 10.0043 2.41602C9.41723 2.41602 8.85419 2.64924 8.43906 3.06437Z" fill="#5A5A5A"/>
</g>
<defs>
<clipPath id="clip0_2445_3004">
<rect width="20.0055" height="20.0055" fill="white" transform="translate(0.773438 0.03125)"/>
</clipPath>
</defs>
</svg>
