<svg width="42" height="42" viewBox="0 0 42 42" fill="none" xmlns="http://www.w3.org/2000/svg">
<g clip-path="url(#clip0_2445_2485)">
<path d="M33.25 5.25H8.75C6.825 5.25 5.25 6.825 5.25 8.75V33.25C5.25 35.175 6.825 36.75 8.75 36.75H33.25C35.175 36.75 36.75 35.175 36.75 33.25V8.75C36.75 6.825 35.175 5.25 33.25 5.25ZM33.25 33.25H8.75V8.75H33.25V33.25Z" fill="#333333"/>
<path d="M15.75 21H12.25V29.75H15.75V21Z" fill="#333333"/>
<path d="M29.75 12.25H26.25V29.75H29.75V12.25Z" fill="#333333"/>
<path d="M22.75 24.5H19.25V29.75H22.75V24.5Z" fill="#333333"/>
<path d="M22.75 17.5H19.25V21H22.75V17.5Z" fill="#333333"/>
</g>
<defs>
<clipPath id="clip0_2445_2485">
<rect width="42" height="42" fill="white"/>
</clipPath>
</defs>
</svg>
