<svg width="34" height="34" viewBox="0 0 34 34" fill="none" xmlns="http://www.w3.org/2000/svg">
<g clip-path="url(#clip0_2445_2475)">
<path d="M26.9167 4.25H7.08333C5.525 4.25 4.25 5.525 4.25 7.08333V26.9167C4.25 28.475 5.525 29.75 7.08333 29.75H26.9167C28.475 29.75 29.75 28.475 29.75 26.9167V7.08333C29.75 5.525 28.475 4.25 26.9167 4.25ZM26.9167 26.9167H7.08333V7.08333H26.9167V26.9167Z" fill="#EB262A"/>
<path d="M12.7513 17H9.91797V24.0833H12.7513V17Z" fill="#EB262A"/>
<path d="M24.0833 9.91602H21.25V24.0827H24.0833V9.91602Z" fill="#EB262A"/>
<path d="M18.4154 19.834H15.582V24.084H18.4154V19.834Z" fill="#EB262A"/>
<path d="M18.4154 14.166H15.582V16.9993H18.4154V14.166Z" fill="#EB262A"/>
</g>
<defs>
<clipPath id="clip0_2445_2475">
<rect width="34" height="34" fill="white"/>
</clipPath>
</defs>
</svg>
