<svg width="34" height="34" viewBox="0 0 34 34" fill="none" xmlns="http://www.w3.org/2000/svg">
<g clip-path="url(#clip0_2445_2506)">
<path fill-rule="evenodd" clip-rule="evenodd" d="M28.332 4.25H5.66536C4.10703 4.25 2.83203 5.525 2.83203 7.08333V26.9167C2.83203 28.475 4.10703 29.75 5.66536 29.75H28.332C29.8904 29.75 31.1654 28.475 31.1654 26.9167V7.08333C31.1654 5.525 29.8904 4.25 28.332 4.25ZM28.332 26.9167H5.66536V7.08333H28.332V26.9167Z" fill="white"/>
<path fill-rule="evenodd" clip-rule="evenodd" d="M27.4975 14.7617L25.4858 12.75L20.995 17.2408L18.9975 15.2292L17 17.2267L20.995 21.25L27.4975 14.7617Z" fill="white"/>
<path d="M14.1654 9.91602H7.08203V12.7493H14.1654V9.91602Z" fill="white"/>
<path d="M14.1654 15.584H7.08203V18.4173H14.1654V15.584Z" fill="white"/>
<path d="M14.1654 21.25H7.08203V24.0833H14.1654V21.25Z" fill="white"/>
</g>
<defs>
<clipPath id="clip0_2445_2506">
<rect width="34" height="34" fill="white"/>
</clipPath>
</defs>
</svg>
