<svg width="32" height="32" viewBox="0 0 32 32" fill="none" xmlns="http://www.w3.org/2000/svg">
<mask id="mask0_2445_2800" style="mask-type:alpha" maskUnits="userSpaceOnUse" x="0" y="0" width="32" height="32">
<rect width="32" height="32" fill="#D9D9D9"/>
</mask>
<g mask="url(#mask0_2445_2800)">
<path d="M16.0013 18.666C14.8902 18.666 13.9457 18.2771 13.168 17.4993C12.3902 16.7216 12.0013 15.7771 12.0013 14.666V6.66602C12.0013 5.5549 12.3902 4.61046 13.168 3.83268C13.9457 3.0549 14.8902 2.66602 16.0013 2.66602C17.1124 2.66602 18.0569 3.0549 18.8346 3.83268C19.6124 4.61046 20.0013 5.5549 20.0013 6.66602V14.666C20.0013 15.7771 19.6124 16.7216 18.8346 17.4993C18.0569 18.2771 17.1124 18.666 16.0013 18.666ZM14.668 27.9993V23.8993C12.3569 23.5882 10.4457 22.5549 8.93464 20.7994C7.42352 19.0438 6.66797 16.9993 6.66797 14.666H9.33464C9.33464 16.5105 9.98464 18.0827 11.2846 19.3827C12.5846 20.6827 14.1569 21.3327 16.0013 21.3327C17.8457 21.3327 19.418 20.6827 20.718 19.3827C22.018 18.0827 22.668 16.5105 22.668 14.666H25.3346C25.3346 16.9993 24.5791 19.0438 23.068 20.7994C21.5569 22.5549 19.6457 23.5882 17.3346 23.8993V27.9993H14.668ZM16.0013 15.9993C16.3791 15.9993 16.6957 15.8716 16.9513 15.616C17.2069 15.3605 17.3346 15.0438 17.3346 14.666V6.66602C17.3346 6.28824 17.2069 5.97157 16.9513 5.71602C16.6957 5.46046 16.3791 5.33268 16.0013 5.33268C15.6235 5.33268 15.3069 5.46046 15.0513 5.71602C14.7957 5.97157 14.668 6.28824 14.668 6.66602V14.666C14.668 15.0438 14.7957 15.3605 15.0513 15.616C15.3069 15.8716 15.6235 15.9993 16.0013 15.9993Z" fill="#EB262A"/>
</g>
</svg>
