<svg width="21" height="21" viewBox="0 0 21 21" fill="none" xmlns="http://www.w3.org/2000/svg">
<path fill-rule="evenodd" clip-rule="evenodd" d="M4.61007 3.36439C4.38899 3.36439 4.17697 3.45222 4.02065 3.60854C3.86432 3.76486 3.7765 3.97688 3.7765 4.19796V15.5226L5.68778 13.6113C5.8441 13.455 6.05612 13.3672 6.27719 13.3672H16.28C16.501 13.3672 16.7131 13.2793 16.8694 13.123C17.0257 12.9667 17.1135 12.7547 17.1135 12.5336V4.19796C17.1135 3.97688 17.0257 3.76486 16.8694 3.60854C16.7131 3.45221 16.501 3.36439 16.28 3.36439H4.61007ZM2.84181 2.4297C3.31078 1.96073 3.94684 1.69727 4.61007 1.69727H16.28C16.9432 1.69727 17.5792 1.96073 18.0482 2.4297C18.5172 2.89867 18.7807 3.53473 18.7807 4.19796V12.5336C18.7807 13.1968 18.5172 13.8329 18.0482 14.3019C17.5792 14.7708 16.9432 15.0343 16.28 15.0343H6.62247L3.53236 18.1244C3.29396 18.3628 2.93543 18.4341 2.62395 18.3051C2.31247 18.1761 2.10938 17.8721 2.10938 17.535V4.19796C2.10938 3.53473 2.37284 2.89867 2.84181 2.4297Z" fill="#5A5A5A"/>
</svg>
