<svg width="34" height="34" viewBox="0 0 34 34" fill="none" xmlns="http://www.w3.org/2000/svg">
<g clip-path="url(#clip0_2445_2522)">
<path d="M17.0013 31.166C18.5596 31.166 19.8346 29.891 19.8346 28.3327H14.168C14.168 29.891 15.443 31.166 17.0013 31.166ZM25.5013 22.666V15.5827C25.5013 11.2335 23.1921 7.59268 19.1263 6.62935V5.66602C19.1263 4.49018 18.1771 3.54102 17.0013 3.54102C15.8255 3.54102 14.8763 4.49018 14.8763 5.66602V6.62935C10.8246 7.59268 8.5013 11.2193 8.5013 15.5827V22.666L5.66797 25.4993V26.916H28.3346V25.4993L25.5013 22.666ZM22.668 24.0827H11.3346V15.5827C11.3346 12.0693 13.4738 9.20768 17.0013 9.20768C20.5288 9.20768 22.668 12.0693 22.668 15.5827V24.0827Z" fill="white"/>
</g>
<defs>
<clipPath id="clip0_2445_2522">
<rect width="34" height="34" fill="white"/>
</clipPath>
</defs>
</svg>
