<svg width="169" height="48" viewBox="0 0 169 48" fill="none" xmlns="http://www.w3.org/2000/svg">
<path d="M5.54297 1.5H20.2387C21.7865 1.5 23.2842 1.65981 24.7313 1.97739C26.1778 2.29672 27.4529 2.8498 28.5575 3.63903C29.6611 4.42852 30.5431 5.485 31.2034 6.80783C31.8627 8.13225 32.1926 9.78667 32.1926 11.7723C32.1926 15.3614 31.0805 18.0722 28.8554 19.9056C26.6309 21.7383 23.3452 22.6548 18.9976 22.6548H10.112V36.7444H5.54297V1.5ZM10.112 18.4158H19.0594C22.0936 18.4158 24.2409 17.8593 25.5028 16.746C26.765 15.6324 27.396 14.0263 27.396 11.9256C27.396 10.711 27.1922 9.70515 26.7838 8.90843C26.376 8.11101 25.8092 7.47242 25.0824 6.99089C24.3552 6.51035 23.5083 6.17496 22.5395 5.98501C21.5704 5.79507 20.5375 5.70064 19.4418 5.70064H10.112V18.4158Z" fill="#EB262A"/>
<path d="M47.8039 15.3983C47.0671 15.1956 46.1404 15.0937 45.0246 15.0937C42.7401 15.0937 40.7732 16.3007 39.1237 18.7142V36.744H34.5547V11.1986H39.1237V14.8264C40.951 12.0522 43.1591 10.6641 45.7473 10.6641C46.0773 10.6641 46.4069 10.677 46.7376 10.7024C47.0671 10.7277 47.4231 10.7791 47.8039 10.8547V15.3983Z" fill="#EB262A"/>
<path d="M58.0894 10.6641C59.9167 10.6641 61.5662 10.9639 63.0386 11.5618C64.51 12.1597 65.7664 13.0255 66.8075 14.1577C67.8479 15.2908 68.6481 16.6844 69.206 18.3398C69.7639 19.9938 70.0441 21.8779 70.0441 23.9909C70.0441 26.1805 69.7516 28.1018 69.1678 29.7569C68.5839 31.4113 67.765 32.8049 66.7127 33.9377C65.6592 35.0712 64.4029 35.9234 62.9434 36.4969C61.484 37.0685 59.8655 37.3552 58.0894 37.3552C56.3383 37.3552 54.7328 37.0685 53.2733 36.4969C51.8139 35.9234 50.5575 35.0712 49.5041 33.9377C48.4507 32.8049 47.6386 31.4113 47.0677 29.7569C46.4968 28.1018 46.2109 26.1805 46.2109 23.9909C46.2109 21.8275 46.4968 19.9117 47.0677 18.2437C47.6386 16.5769 48.4507 15.1833 49.5041 14.0625C50.5575 12.9424 51.8139 12.096 53.2733 11.5234C54.7328 10.9509 56.3383 10.6641 58.0894 10.6641ZM58.0894 33.8035C60.334 33.8035 62.1135 32.9801 63.4276 31.3319C64.7417 29.6836 65.3992 27.2366 65.3992 23.9909C65.3992 22.3299 65.2197 20.8861 64.8632 19.6591C64.5059 18.4326 64.0026 17.4103 63.3512 16.5923C62.7005 15.7747 61.929 15.1614 61.0366 14.7525C60.1433 14.3435 59.1605 14.1392 58.0894 14.1392C56.992 14.1392 55.9973 14.3565 55.1047 14.7908C54.2103 15.2247 53.4453 15.8579 52.8079 16.6885C52.1694 17.5184 51.6715 18.5472 51.3153 19.7742C50.9577 21.0007 50.7799 22.4066 50.7799 23.9909C50.7799 27.1846 51.4361 29.6193 52.7502 31.2935C54.0642 32.9678 55.8445 33.8035 58.0894 33.8035Z" fill="#EB262A"/>
<path d="M88.0915 33.7273C86.065 36.1469 83.6467 37.3556 80.835 37.3556C79.1886 37.3556 77.726 37.0504 76.4471 36.4391C75.1685 35.8286 74.0787 34.9566 73.1805 33.8238C72.2807 32.6916 71.5976 31.3103 71.1284 29.6806C70.6595 28.0515 70.4258 26.2192 70.4258 24.1818C70.4258 22.0953 70.692 20.2177 71.2239 18.5493C71.7552 16.883 72.496 15.463 73.446 14.2926C74.3957 13.1214 75.5227 12.2244 76.8269 11.6005C78.1314 10.9766 79.5687 10.6645 81.1387 10.6645C83.8992 10.6645 86.2168 11.4923 88.0915 13.1464V1.5H92.6214V36.7444H88.0915V33.7273ZM88.0915 29.4897V17.256C86.1114 15.1779 83.878 14.1395 81.3905 14.1395C79.4615 14.1395 77.9127 14.9702 76.7457 16.6311C75.578 18.2919 74.9948 20.8091 74.9948 24.1829C74.9948 27.3773 75.5463 29.7805 76.6508 31.3897C77.7544 32.9996 79.2708 33.8039 81.2005 33.8039C83.6873 33.8039 85.9838 32.3665 88.0915 29.4897Z" fill="#EB262A"/>
<path d="M112.309 34.1478C109.978 36.2868 107.015 37.3552 103.419 37.3552C102.178 37.3552 101.026 37.1767 99.9619 36.8207C98.8986 36.4641 97.9804 35.9617 97.2079 35.3121C96.4357 34.6632 95.8337 33.887 95.4035 32.9828C94.9721 32.08 94.7578 31.08 94.7578 29.9855C94.7578 24.0038 99.8735 21.012 110.105 21.012H112.309C112.309 19.8351 112.257 18.8114 112.157 17.9404C112.055 17.0704 111.81 16.3538 111.419 15.7901C111.028 15.2271 110.429 14.811 109.622 14.5423C108.815 14.2744 107.693 14.1392 106.255 14.1392C102.219 14.1392 100.15 15.6029 100.05 18.53H95.5195C95.8744 13.2863 99.5289 10.6641 106.483 10.6641C108.108 10.6641 109.561 10.7979 110.843 11.0648C112.124 11.3321 113.209 11.8232 114.098 12.5351C114.986 13.248 115.665 14.2288 116.135 15.4756C116.604 16.7227 116.839 18.3145 116.839 20.2481V36.7441H112.309L112.309 34.1478ZM112.309 30.0314V24.3338H109.224C102.677 24.3338 99.4023 26.1436 99.4023 29.7617C99.4023 31.0711 99.8718 32.0718 100.811 32.7645C101.749 33.4586 103.057 33.8036 104.732 33.8036C105.468 33.8036 106.198 33.7207 106.921 33.5544C107.645 33.3867 108.336 33.1376 108.996 32.8035C109.656 32.4695 110.272 32.0718 110.843 31.6105C111.414 31.1485 111.902 30.6221 112.309 30.0314Z" fill="#EB262A"/>
<path d="M125.026 14.2155C127.026 11.8479 129.445 10.6641 132.282 10.6641C133.928 10.6641 135.397 10.9762 136.689 11.6001C137.98 12.224 139.069 13.1022 139.956 14.2343C140.842 15.3674 141.519 16.7423 141.988 18.3583C142.457 19.9754 142.692 21.7762 142.692 23.7622C142.692 25.8239 142.425 27.6945 141.893 29.3742C141.361 31.0547 140.615 32.4866 139.652 33.67C138.689 34.8549 137.549 35.7652 136.232 36.4004C134.916 37.0369 133.484 37.3552 131.94 37.3552C129.205 37.3552 126.9 36.5031 125.026 34.7967V46.558H120.457V11.1986H125.026V14.2155ZM125.026 30.7493C126.929 32.7864 129.15 33.8035 131.688 33.8035C133.668 33.8035 135.223 32.9739 136.352 31.3127C137.482 29.6514 138.047 27.1339 138.047 23.7612C138.047 20.5667 137.513 18.1639 136.448 16.554C135.381 14.9448 133.858 14.1391 131.879 14.1391C129.39 14.1391 127.107 15.6135 125.026 18.5605L125.026 30.7493Z" fill="#EB262A"/>
<path d="M154.571 36.7821C154.064 36.8841 153.544 36.9601 153.011 37.0114C152.478 37.0613 151.919 37.088 151.336 37.088C149.911 37.088 148.788 36.9087 147.97 36.5528C147.15 36.1955 146.543 35.6787 146.146 35.0024C145.749 34.3282 145.506 33.5055 145.417 32.5362C145.327 31.567 145.282 30.4712 145.282 29.2467V14.7498H142.16V11.1984H145.282V4.89844H149.851V11.1984H153.963V14.7498H149.851V29.5095C149.851 30.4035 149.908 31.1187 150.023 31.656C150.137 32.1919 150.295 32.6013 150.498 32.8833C150.701 33.1633 150.961 33.3487 151.279 33.4384C151.596 33.5281 151.945 33.5719 152.326 33.5719C152.731 33.5719 153.118 33.5603 153.486 33.535C153.855 33.5103 154.216 33.4596 154.571 33.383L154.571 36.7821Z" fill="#EB262A"/>
<path d="M153.832 25.3125H165.234V36.7473" fill="#EB262A"/>
</svg>
