<svg width="34" height="34" viewBox="0 0 34 34" fill="none" xmlns="http://www.w3.org/2000/svg">
<path d="M13.6948 2.83398L13.0003 6.40885C11.8328 6.84918 10.7606 7.46639 9.82113 8.23779L6.38737 7.05355L3.07812 12.7811L5.82845 15.1717C5.72272 15.8209 5.66797 16.4224 5.66797 17.0007C5.66797 17.5797 5.72436 18.1802 5.82845 18.8296V18.8324L3.07812 21.223L6.38737 26.9478L9.81836 25.7663C10.7579 26.5381 11.8325 27.1519 13.0003 27.5924L13.6948 31.1673H20.3078L21.0023 27.5924C22.1706 27.1518 23.2416 26.5356 24.1815 25.7635L27.6152 26.9478L30.9217 21.223L28.1742 18.8296C28.2799 18.1804 28.3346 17.5789 28.3346 17.0007C28.3346 16.4233 28.2796 15.8225 28.1742 15.1745V15.1717L30.9245 12.7783L27.6152 7.05355L24.1842 8.23503C23.2447 7.4632 22.1701 6.84943 21.0023 6.40885L20.3078 2.83398H13.6948ZM16.0301 5.66732H17.9725L18.5231 8.50065L20.0007 9.05957C20.8913 9.39523 21.6914 9.85605 22.3857 10.4264L23.6087 11.4281L26.3314 10.4928L27.3026 12.1724L25.1278 14.0649L25.3768 15.6227V15.6255C25.4634 16.1567 25.5013 16.6022 25.5013 17.0007C25.5013 17.3991 25.4634 17.8446 25.3768 18.3758L25.125 19.9336L27.2998 21.8262L26.3286 23.5085L23.6087 22.5705L22.383 23.5749C21.6887 24.1452 20.8913 24.6061 20.0007 24.9417H19.9979L18.5203 25.5007L17.9697 28.334H16.0301L15.4795 25.5007L14.002 24.9417C13.1113 24.6061 12.3112 24.1452 11.6169 23.5749L10.3939 22.5732L7.67122 23.5085L6.70003 21.8289L8.8776 19.9336L8.62581 18.3813V18.3786C8.54043 17.8451 8.5013 17.3983 8.5013 17.0007C8.5013 16.6022 8.53919 16.1567 8.62581 15.6255L8.8776 14.0677L6.70003 12.1751L7.67122 10.4928L10.3939 11.4308L11.6169 10.4264C12.3112 9.85605 13.1113 9.39523 14.002 9.05957L15.4795 8.50065L16.0301 5.66732ZM17.0013 11.334C13.8896 11.334 11.3346 13.8889 11.3346 17.0007C11.3346 20.1124 13.8896 22.6673 17.0013 22.6673C20.113 22.6673 22.668 20.1124 22.668 17.0007C22.668 13.8889 20.113 11.334 17.0013 11.334ZM17.0013 14.1673C18.5759 14.1673 19.8346 15.4261 19.8346 17.0007C19.8346 18.5752 18.5759 19.834 17.0013 19.834C15.4267 19.834 14.168 18.5752 14.168 17.0007C14.168 15.4261 15.4267 14.1673 17.0013 14.1673Z" fill="white"/>
</svg>
